<svg width="30" height="30" viewBox="0 0 30 30" fill="none" xmlns="http://www.w3.org/2000/svg">
<path d="M11.8841 5.96248L11.6671 7.96809C11.3835 10.5979 11.2417 11.9128 10.585 13.0117C9.92836 14.1106 8.83756 14.8584 6.65596 16.3541L4.99247 17.4953L6.99808 17.7122C9.62789 17.9959 10.9431 18.139 12.0417 18.7943C13.1403 19.4497 13.8884 20.5418 15.3841 22.7234L16.5253 24.3869L16.7422 22.3813C17.0259 19.7515 17.169 18.4363 17.8243 17.3377C18.4797 16.2391 19.5718 15.4909 21.7534 13.9953L23.4169 12.8541L21.4113 12.6371C18.7815 12.3535 17.4666 12.2117 16.3677 11.555C15.2688 10.8984 14.5209 9.80756 13.0253 7.62597L11.8841 5.96248Z" fill="url(#paint0_linear_514_542)"/>
<path d="M18.6687 2.19106L18.5774 3.03492C18.4578 4.14304 18.398 4.6971 18.1224 5.15841C17.8457 5.62134 17.3861 5.93649 16.4666 6.5655L15.767 7.04698L16.6122 7.13795C17.719 7.25788 18.2731 7.31768 18.7344 7.59335C19.1973 7.86998 19.5124 8.32959 20.1415 9.24913L20.6229 9.94871L20.7142 9.10484C20.8338 7.99672 20.8936 7.44266 21.1693 6.98135C21.4459 6.51842 21.9055 6.20327 22.8251 5.57426L23.5247 5.09279L22.6795 5.00181C21.5727 4.88188 21.0186 4.82208 20.5573 4.54642C20.0944 4.26978 19.7792 3.81018 19.1502 2.89064L18.6687 2.19106Z" fill="white"/>
<path d="M18.6687 2.19106L18.5774 3.03492C18.4578 4.14304 18.398 4.6971 18.1224 5.15841C17.8457 5.62134 17.3861 5.93649 16.4666 6.5655L15.767 7.04698L16.6122 7.13795C17.719 7.25788 18.2731 7.31768 18.7344 7.59335C19.1973 7.86998 19.5124 8.32959 20.1415 9.24913L20.6229 9.94871L20.7142 9.10484C20.8338 7.99672 20.8936 7.44266 21.1693 6.98135C21.4459 6.51842 21.9055 6.20327 22.8251 5.57426L23.5247 5.09279L22.6795 5.00181C21.5727 4.88188 21.0186 4.82208 20.5573 4.54642C20.0944 4.26978 19.7792 3.81018 19.1502 2.89064L18.6687 2.19106Z" fill="url(#paint1_linear_514_542)"/>
<path d="M18.6687 2.19106L18.5774 3.03492C18.4578 4.14304 18.398 4.6971 18.1224 5.15841C17.8457 5.62134 17.3861 5.93649 16.4666 6.5655L15.767 7.04698L16.6122 7.13795C17.719 7.25788 18.2731 7.31768 18.7344 7.59335C19.1973 7.86998 19.5124 8.32959 20.1415 9.24913L20.6229 9.94871L20.7142 9.10484C20.8338 7.99672 20.8936 7.44266 21.1693 6.98135C21.4459 6.51842 21.9055 6.20327 22.8251 5.57426L23.5247 5.09279L22.6795 5.00181C21.5727 4.88188 21.0186 4.82208 20.5573 4.54642C20.0944 4.26978 19.7792 3.81018 19.1502 2.89064L18.6687 2.19106Z" fill="url(#paint2_linear_514_542)"/>
<path d="M18.6687 2.19106L18.5774 3.03492C18.4578 4.14304 18.398 4.6971 18.1224 5.15841C17.8457 5.62134 17.3861 5.93649 16.4666 6.5655L15.767 7.04698L16.6122 7.13795C17.719 7.25788 18.2731 7.31768 18.7344 7.59335C19.1973 7.86998 19.5124 8.32959 20.1415 9.24913L20.6229 9.94871L20.7142 9.10484C20.8338 7.99672 20.8936 7.44266 21.1693 6.98135C21.4459 6.51842 21.9055 6.20327 22.8251 5.57426L23.5247 5.09279L22.6795 5.00181C21.5727 4.88188 21.0186 4.82208 20.5573 4.54642C20.0944 4.26978 19.7792 3.81018 19.1502 2.89064L18.6687 2.19106Z" fill="url(#paint3_linear_514_542)"/>
<defs>
<linearGradient id="paint0_linear_514_542" x1="11.8841" y1="5.96248" x2="16.5253" y2="24.3869" gradientUnits="userSpaceOnUse">
<stop stop-color="white"/>
<stop offset="1" stop-color="#4E6BEA"/>
</linearGradient>
<linearGradient id="paint1_linear_514_542" x1="14.6957" y1="2.79429" x2="21.9222" y2="10.9633" gradientUnits="userSpaceOnUse">
<stop stop-color="#481FEE"/>
<stop offset="0.490385" stop-color="#E21EB0"/>
<stop offset="1" stop-color="#FFD974"/>
</linearGradient>
<linearGradient id="paint2_linear_514_542" x1="18.6687" y1="2.19106" x2="20.6229" y2="9.94871" gradientUnits="userSpaceOnUse">
<stop stop-color="white"/>
<stop offset="1" stop-color="#686868"/>
</linearGradient>
<linearGradient id="paint3_linear_514_542" x1="18.6687" y1="2.19106" x2="20.6229" y2="9.94871" gradientUnits="userSpaceOnUse">
<stop stop-color="white"/>
<stop offset="1" stop-color="#4E6BEA"/>
</linearGradient>
</defs>
</svg>
