<svg width="75" height="22" viewBox="0 0 75 22" fill="none" xmlns="http://www.w3.org/2000/svg">
<path d="M54.9629 21.5023L62.694 10.872L55.0535 0.362427H59.5986L64.9741 7.76138L70.3648 0.362427H74.9099L67.2693 10.872L75.0005 21.5023H70.4252L64.9741 14.0127L59.5382 21.5023H54.9629Z" fill="#5772EB"/>
<path d="M48.1052 21.7738C47.32 21.7234 46.56 21.5674 45.8251 21.3057C45.1003 21.0339 44.4561 20.6664 43.8923 20.2034C43.3286 19.7403 42.8957 19.1866 42.5938 18.5424L45.7043 17.2136C45.8251 17.4149 46.0214 17.6314 46.2932 17.8629C46.565 18.0844 46.8872 18.2706 47.2596 18.4216C47.6421 18.5726 48.0599 18.6481 48.5129 18.6481C48.8954 18.6481 49.2578 18.5978 49.6001 18.4971C49.9524 18.3864 50.2343 18.2203 50.4457 17.9988C50.6672 17.7773 50.7779 17.4904 50.7779 17.1381C50.7779 16.7656 50.647 16.4787 50.3853 16.2774C50.1336 16.066 49.8115 15.91 49.4189 15.8093C49.0364 15.6986 48.6639 15.5979 48.3015 15.5073C47.3452 15.316 46.4543 15.0191 45.6288 14.6164C44.8134 14.2137 44.1541 13.6953 43.6507 13.0611C43.1575 12.4169 42.9108 11.6417 42.9108 10.7357C42.9108 9.73915 43.1726 8.87845 43.696 8.15366C44.2296 7.42886 44.9191 6.87017 45.7647 6.47757C46.6204 6.08497 47.5415 5.88867 48.528 5.88867C49.7259 5.88867 50.8232 6.14034 51.8198 6.64367C52.8264 7.13693 53.6217 7.83656 54.2056 8.74255L51.2913 10.4639C51.1504 10.2223 50.9541 10.0009 50.7024 9.79954C50.4507 9.58815 50.1638 9.41701 49.8417 9.28615C49.5196 9.14522 49.1823 9.06468 48.83 9.04455C48.377 9.02442 47.9643 9.06468 47.5918 9.16535C47.2194 9.26602 46.9174 9.43715 46.6858 9.67875C46.4644 9.92034 46.3536 10.2425 46.3536 10.6451C46.3536 11.0277 46.5046 11.3146 46.8066 11.5058C47.1086 11.687 47.471 11.828 47.8938 11.9286C48.3267 12.0293 48.7394 12.14 49.132 12.2608C50.0179 12.5528 50.8484 12.9101 51.6235 13.3329C52.4087 13.7557 53.0378 14.2741 53.511 14.8882C53.9841 15.5023 54.2106 16.2371 54.1905 17.0928C54.1905 18.0693 53.8985 18.9249 53.3147 19.6598C52.7308 20.3846 51.9758 20.9382 51.0497 21.3208C50.1336 21.7033 49.1521 21.8543 48.1052 21.7738Z" fill="white"/>
<path d="M33.4233 21.5023L33.4082 6.40241H37.0926L37.1077 7.7463C37.6211 7.20271 38.2351 6.77487 38.9499 6.46281C39.6646 6.14068 40.4347 5.97961 41.2601 5.97961C41.8138 5.97961 42.3675 6.06015 42.9211 6.22121L41.4715 9.93579C41.089 9.78479 40.7065 9.70929 40.324 9.70929C39.73 9.70929 39.1864 9.85525 38.6932 10.1472C38.21 10.429 37.8224 10.8166 37.5305 11.3099C37.2486 11.7931 37.1077 12.3316 37.1077 12.9256V21.5023H33.4233Z" fill="white"/>
<path d="M24.4135 21.8948C23.0243 21.8948 21.7559 21.5375 20.6083 20.8228C19.4708 20.108 18.5597 19.1517 17.8752 17.9538C17.2008 16.7458 16.8635 15.412 16.8635 13.9523C16.8635 12.845 17.0598 11.8131 17.4524 10.8568C17.845 9.89042 18.3836 9.04483 19.0681 8.32004C19.7627 7.58518 20.568 7.01138 21.4841 6.59865C22.4002 6.18592 23.3766 5.97955 24.4135 5.97955C25.8027 5.97955 27.066 6.33692 28.2035 7.05165C29.3511 7.76637 30.2622 8.72773 30.9366 9.93572C31.6212 11.1437 31.9634 12.4826 31.9634 13.9523C31.9634 15.0496 31.7671 16.0763 31.3745 17.0327C30.9819 17.989 30.4383 18.8346 29.7437 19.5695C29.0592 20.2943 28.2589 20.863 27.3429 21.2757C26.4369 21.6885 25.4604 21.8948 24.4135 21.8948ZM24.4135 18.2105C25.1483 18.2105 25.8077 18.0142 26.3916 17.6216C26.9754 17.229 27.4335 16.7105 27.7657 16.0663C28.1079 15.422 28.279 14.7174 28.279 13.9523C28.279 13.1671 28.1029 12.4524 27.7506 11.8081C27.4083 11.1538 26.9402 10.6354 26.3463 10.2528C25.7624 9.86023 25.1181 9.66393 24.4135 9.66393C23.6887 9.66393 23.0343 9.86023 22.4505 10.2528C21.8666 10.6454 21.4036 11.1689 21.0613 11.8232C20.719 12.4775 20.5479 13.1872 20.5479 13.9523C20.5479 14.7476 20.7241 15.4673 21.0764 16.1116C21.4287 16.7558 21.8968 17.2692 22.4807 17.6518C23.0746 18.0242 23.7189 18.2105 24.4135 18.2105Z" fill="white"/>
<path d="M7.91234 21.8948C6.74462 21.8948 5.62219 21.7136 4.54507 21.3513C3.47801 20.9788 2.54182 20.4503 1.73649 19.7658C0.93116 19.0712 0.352331 18.2407 0 17.2743L3.45788 16.0059C3.59881 16.4086 3.88571 16.776 4.31857 17.1082C4.75143 17.4404 5.27993 17.7071 5.90406 17.9085C6.52819 18.1098 7.19762 18.2105 7.91234 18.2105C8.64721 18.2105 9.33174 18.0997 9.96593 17.8783C10.6102 17.6467 11.1286 17.3296 11.5212 16.927C11.9138 16.5143 12.1101 16.0361 12.1101 15.4925C12.1101 14.9388 11.9038 14.4858 11.491 14.1335C11.0783 13.7711 10.5498 13.4842 9.90553 13.2728C9.26127 13.0614 8.59687 12.9003 7.91234 12.7896C6.41242 12.5581 5.06853 12.2007 3.88067 11.7175C2.69281 11.2343 1.75159 10.5649 1.05699 9.70923C0.372464 8.85357 0.0301999 7.74625 0.0301999 6.38726C0.0301999 5.1088 0.397631 3.99141 1.13249 3.03508C1.86735 2.07875 2.83375 1.33382 4.03167 0.800294C5.2296 0.266765 6.52315 0 7.91234 0C9.07 0 10.1874 0.181199 11.2645 0.543597C12.3416 0.905993 13.2829 1.43449 14.0882 2.12908C14.9036 2.82368 15.4875 3.65921 15.8398 4.63567L12.3668 5.88896C12.2259 5.4863 11.939 5.11887 11.5061 4.78667C11.0733 4.45447 10.5448 4.19274 9.92063 4.00147C9.2965 3.80014 8.62707 3.69947 7.91234 3.69947C7.19762 3.68941 6.51812 3.80517 5.87386 4.04677C5.23966 4.2783 4.72123 4.5954 4.31857 4.99806C3.91591 5.40073 3.71457 5.86379 3.71457 6.38726C3.71457 7.06172 3.90081 7.57008 4.27327 7.91234C4.6558 8.25461 5.16416 8.50627 5.79836 8.66734C6.43256 8.81834 7.13722 8.95927 7.91234 9.09014C9.32167 9.3116 10.6253 9.68407 11.8232 10.2075C13.0211 10.731 13.9825 11.4306 14.7073 12.3064C15.4321 13.1721 15.7945 14.2342 15.7945 15.4925C15.7945 16.771 15.4321 17.8934 14.7073 18.8598C13.9825 19.8161 13.0211 20.561 11.8232 21.0946C10.6253 21.6281 9.32167 21.8948 7.91234 21.8948Z" fill="white"/>
</svg>
