<svg width="30" height="30" viewBox="0 0 30 30" fill="none" xmlns="http://www.w3.org/2000/svg">
<path d="M11.8841 5.96272L11.6671 7.96833C11.3835 10.5981 11.2417 11.913 10.585 13.012C9.92836 14.1109 8.83756 14.8587 6.65596 16.3543L4.99247 17.4955L6.99808 17.7125C9.62789 17.9961 10.9431 18.1392 12.0417 18.7946C13.1403 19.4499 13.8884 20.5421 15.3841 22.7237L16.5253 24.3871L16.7422 22.3815C17.0259 19.7517 17.169 18.4365 17.8243 17.3379C18.4797 16.2393 19.5718 15.4912 21.7534 13.9955L23.4169 12.8543L21.4113 12.6374C18.7815 12.3538 17.4666 12.212 16.3677 11.5553C15.2688 10.8986 14.5209 9.80781 13.0253 7.62621L11.8841 5.96272Z" fill="url(#paint0_linear_514_536)"/>
<path d="M18.6687 2.1913L18.5774 3.03517C18.4578 4.14329 18.398 4.69735 18.1224 5.15866C17.8457 5.62159 17.3861 5.93674 16.4666 6.56575L15.767 7.04722L16.6122 7.13819C17.719 7.25813 18.2731 7.31793 18.7344 7.59359C19.1973 7.87022 19.5124 8.32983 20.1415 9.24937L20.6229 9.94895L20.7142 9.10509C20.8338 7.99697 20.8936 7.44291 21.1693 6.9816C21.4459 6.51866 21.9055 6.20351 22.8251 5.57451L23.5247 5.09303L22.6795 5.00206C21.5727 4.88213 21.0186 4.82232 20.5573 4.54666C20.0944 4.27003 19.7792 3.81042 19.1502 2.89088L18.6687 2.1913Z" fill="url(#paint1_linear_514_536)"/>
<defs>
<linearGradient id="paint0_linear_514_536" x1="-3.64592" y1="23.0561" x2="26.9766" y2="-0.679544" gradientUnits="userSpaceOnUse">
<stop stop-color="#EB008B"/>
<stop offset="1" stop-color="#F9EC31"/>
</linearGradient>
<linearGradient id="paint1_linear_514_536" x1="12.1298" y1="9.38851" x2="25.0235" y2="-0.605444" gradientUnits="userSpaceOnUse">
<stop stop-color="#EB008B"/>
<stop offset="1" stop-color="#F9EC31"/>
</linearGradient>
</defs>
</svg>
