<svg width="45" height="45" viewBox="0 0 45 45" fill="none" xmlns="http://www.w3.org/2000/svg">
<g clip-path="url(#clip0_514_1167)">
<rect x="4.66406" width="40" height="40" rx="10.6667" transform="rotate(6.69612 4.66406 0)" fill="#EB579F"/>
<path d="M20.0618 24.8552C20.1862 23.7958 20.4284 22.9221 20.7884 22.234C21.1721 21.5273 21.615 20.9563 22.1172 20.5213C22.6218 20.065 23.1402 19.6748 23.6723 19.3506C24.2256 19.0289 24.7446 18.7247 25.2293 18.4379C25.7165 18.13 26.1228 17.7803 26.4479 17.3889C26.7731 16.9975 26.9718 16.4945 27.0439 15.8801C27.1509 14.969 26.9046 14.2313 26.305 13.6668C25.729 13.0837 24.869 12.725 23.7249 12.5906C22.4324 12.4389 21.3251 12.6311 20.403 13.1672C19.502 13.7058 18.8866 14.5572 18.5566 15.7213L14.5838 15.2549C14.9412 13.8577 15.5622 12.6848 16.4469 11.7362C17.3527 10.79 18.4642 10.1043 19.7815 9.67896C21.0987 9.25365 22.5625 9.13552 24.1728 9.32458C25.7407 9.50866 27.0668 9.92211 28.1513 10.5649C29.2569 11.2103 30.074 12.0258 30.6027 13.0115C31.1526 13.9997 31.3541 15.1188 31.2074 16.3689C31.1004 17.28 30.8613 18.0359 30.49 18.6367C30.1188 19.2375 29.6727 19.7436 29.1519 20.155C28.6522 20.5689 28.1151 20.9355 27.5406 21.2547C26.9662 21.5739 26.4222 21.9074 25.9088 22.2552C25.4166 22.6055 24.9924 23.0176 24.636 23.4912C24.2797 23.9649 24.058 24.5725 23.9709 25.3141L20.0618 24.8552ZM18.8 32.8586L19.3373 28.2821L23.9138 28.8194L23.3765 33.3959L18.8 32.8586Z" fill="black"/>
</g>
<rect x="5.21192" y="0.693614" width="38.75" height="38.75" rx="10.0417" transform="rotate(6.69612 5.21192 0.693614)" stroke="#E8E8E8" stroke-width="1.25"/>
<defs>
<clipPath id="clip0_514_1167">
<rect x="4.66406" width="40" height="40" rx="10.6667" transform="rotate(6.69612 4.66406 0)" fill="white"/>
</clipPath>
</defs>
</svg>
