<svg width="47" height="47" viewBox="0 0 47 47" fill="none" xmlns="http://www.w3.org/2000/svg">
<g clip-path="url(#clip0_514_1169)">
<rect x="46.458" y="39.3662" width="40" height="40" rx="10.6667" transform="rotate(169.788 46.458 39.3662)" fill="#EBE157"/>
<path d="M24.497 20.0637C24.6861 21.1134 24.7085 22.0198 24.5642 22.7828C24.4026 23.5706 24.1449 24.2457 23.791 24.808C23.4408 25.3913 23.0584 25.9154 22.6435 26.3803C22.2077 26.849 21.7996 27.291 21.4193 27.7064C21.0426 28.1427 20.7557 28.5955 20.5584 29.0645C20.3611 29.5336 20.3173 30.0726 20.427 30.6814C20.5896 31.5843 21.0399 32.2185 21.7777 32.5841C22.4983 32.9745 23.4255 33.0676 24.5593 32.8634C25.84 32.6327 26.8435 32.1268 27.5699 31.3456C28.2752 30.5682 28.6165 29.5747 28.5936 28.3649L32.5303 27.6557C32.5947 29.0965 32.3417 30.3993 31.7712 31.5642C31.1797 32.7329 30.3156 33.7123 29.179 34.5023C28.0424 35.2924 26.6763 35.8311 25.0806 36.1185C23.527 36.3984 22.1379 36.3885 20.9134 36.0889C19.6678 35.793 18.6488 35.2504 17.8563 34.4611C17.0429 33.6755 16.5245 32.6634 16.3014 31.4246C16.1387 30.5218 16.1477 29.729 16.3281 29.0462C16.5086 28.3634 16.7882 27.7495 17.1669 27.2043C17.5246 26.663 17.9318 26.1561 18.3886 25.6837C18.8454 25.2112 19.2689 24.7339 19.6589 24.2518C20.0279 23.7734 20.314 23.2558 20.5172 22.699C20.7204 22.1422 20.7558 21.4963 20.6234 20.7615L24.497 20.0637ZM23.3766 12.0392L24.1936 16.5742L19.6586 17.3911L18.8416 12.8561L23.3766 12.0392Z" fill="black"/>
</g>
<rect x="45.7321" y="38.8619" width="38.75" height="38.75" rx="10.0417" transform="rotate(169.788 45.7321 38.8619)" stroke="#E8E8E8" stroke-width="1.25"/>
<defs>
<clipPath id="clip0_514_1169">
<rect x="46.458" y="39.3662" width="40" height="40" rx="10.6667" transform="rotate(169.788 46.458 39.3662)" fill="white"/>
</clipPath>
</defs>
</svg>
